<mxfile host="app.diagrams.net" agent="Mozilla/5.0 (Windows NT 10.0; Win64; x64) AppleWebKit/537.36 (KHTML, like Gecko) Chrome/131.0.0.0 Safari/537.36 Edg/131.0.0.0" version="25.0.1">
  <diagram name="第 1 页" id="20KMCNZaSCfUWrCp0bJK">
    <mxGraphModel dx="1562" dy="857" grid="1" gridSize="10" guides="1" tooltips="1" connect="1" arrows="1" fold="1" page="1" pageScale="1" pageWidth="1169" pageHeight="827" math="0" shadow="0">
      <root>
        <mxCell id="0" />
        <mxCell id="1" parent="0" />
        <mxCell id="KduV_lFKxY_ZVXakrzd7-93" style="edgeStyle=orthogonalEdgeStyle;rounded=0;orthogonalLoop=1;jettySize=auto;html=1;exitX=1;exitY=0.5;exitDx=0;exitDy=0;entryX=0;entryY=0.5;entryDx=0;entryDy=0;" parent="1" source="KduV_lFKxY_ZVXakrzd7-1" target="KduV_lFKxY_ZVXakrzd7-4" edge="1">
          <mxGeometry relative="1" as="geometry" />
        </mxCell>
        <mxCell id="KduV_lFKxY_ZVXakrzd7-1" value="采矿" style="whiteSpace=wrap;html=1;aspect=fixed;rounded=0;" parent="1" vertex="1">
          <mxGeometry y="607" width="120" height="120" as="geometry" />
        </mxCell>
        <mxCell id="KduV_lFKxY_ZVXakrzd7-38" style="edgeStyle=orthogonalEdgeStyle;rounded=0;orthogonalLoop=1;jettySize=auto;html=1;entryX=0;entryY=0.5;entryDx=0;entryDy=0;" parent="1" source="KduV_lFKxY_ZVXakrzd7-4" target="KduV_lFKxY_ZVXakrzd7-36" edge="1">
          <mxGeometry relative="1" as="geometry">
            <Array as="points">
              <mxPoint x="160" y="587" />
            </Array>
          </mxGeometry>
        </mxCell>
        <mxCell id="KduV_lFKxY_ZVXakrzd7-39" style="edgeStyle=orthogonalEdgeStyle;rounded=0;orthogonalLoop=1;jettySize=auto;html=1;exitX=0.5;exitY=1;exitDx=0;exitDy=0;entryX=0;entryY=0.5;entryDx=0;entryDy=0;" parent="1" source="KduV_lFKxY_ZVXakrzd7-4" target="KduV_lFKxY_ZVXakrzd7-37" edge="1">
          <mxGeometry relative="1" as="geometry" />
        </mxCell>
        <mxCell id="KduV_lFKxY_ZVXakrzd7-4" value="" style="ellipse;whiteSpace=wrap;html=1;aspect=fixed;rounded=0;" parent="1" vertex="1">
          <mxGeometry x="150" y="657" width="20" height="20" as="geometry" />
        </mxCell>
        <mxCell id="KduV_lFKxY_ZVXakrzd7-8" value="钦金锭" style="whiteSpace=wrap;html=1;aspect=fixed;rounded=0;" parent="1" vertex="1">
          <mxGeometry x="360" y="507" width="40" height="40" as="geometry" />
        </mxCell>
        <mxCell id="KduV_lFKxY_ZVXakrzd7-9" value="" style="whiteSpace=wrap;html=1;aspect=fixed;rounded=0;" parent="1" vertex="1">
          <mxGeometry x="360" y="547" width="40" height="40" as="geometry" />
        </mxCell>
        <mxCell id="KduV_lFKxY_ZVXakrzd7-10" value="" style="whiteSpace=wrap;html=1;aspect=fixed;rounded=0;" parent="1" vertex="1">
          <mxGeometry x="360" y="587" width="40" height="40" as="geometry" />
        </mxCell>
        <mxCell id="KduV_lFKxY_ZVXakrzd7-11" value="" style="whiteSpace=wrap;html=1;aspect=fixed;rounded=0;" parent="1" vertex="1">
          <mxGeometry x="360" y="627" width="40" height="40" as="geometry" />
        </mxCell>
        <mxCell id="KduV_lFKxY_ZVXakrzd7-13" value="" style="whiteSpace=wrap;html=1;aspect=fixed;rounded=0;" parent="1" vertex="1">
          <mxGeometry x="360" y="667" width="40" height="40" as="geometry" />
        </mxCell>
        <mxCell id="KduV_lFKxY_ZVXakrzd7-14" value="" style="whiteSpace=wrap;html=1;aspect=fixed;rounded=0;" parent="1" vertex="1">
          <mxGeometry x="360" y="707" width="40" height="40" as="geometry" />
        </mxCell>
        <mxCell id="KduV_lFKxY_ZVXakrzd7-15" value="" style="whiteSpace=wrap;html=1;aspect=fixed;rounded=0;" parent="1" vertex="1">
          <mxGeometry x="360" y="747" width="40" height="40" as="geometry" />
        </mxCell>
        <mxCell id="KduV_lFKxY_ZVXakrzd7-16" value="" style="whiteSpace=wrap;html=1;aspect=fixed;rounded=0;" parent="1" vertex="1">
          <mxGeometry x="360" y="787" width="40" height="40" as="geometry" />
        </mxCell>
        <mxCell id="KduV_lFKxY_ZVXakrzd7-31" style="edgeStyle=orthogonalEdgeStyle;rounded=0;orthogonalLoop=1;jettySize=auto;html=1;entryX=0;entryY=0.5;entryDx=0;entryDy=0;" parent="1" source="KduV_lFKxY_ZVXakrzd7-18" target="KduV_lFKxY_ZVXakrzd7-8" edge="1">
          <mxGeometry relative="1" as="geometry">
            <Array as="points">
              <mxPoint x="320" y="527" />
            </Array>
          </mxGeometry>
        </mxCell>
        <mxCell id="KduV_lFKxY_ZVXakrzd7-32" style="edgeStyle=orthogonalEdgeStyle;rounded=0;orthogonalLoop=1;jettySize=auto;html=1;entryX=0;entryY=0.5;entryDx=0;entryDy=0;" parent="1" source="KduV_lFKxY_ZVXakrzd7-18" target="KduV_lFKxY_ZVXakrzd7-9" edge="1">
          <mxGeometry relative="1" as="geometry">
            <Array as="points">
              <mxPoint x="320" y="567" />
            </Array>
          </mxGeometry>
        </mxCell>
        <mxCell id="KduV_lFKxY_ZVXakrzd7-18" value="" style="ellipse;whiteSpace=wrap;html=1;aspect=fixed;rounded=0;" parent="1" vertex="1">
          <mxGeometry x="310" y="537" width="20" height="20" as="geometry" />
        </mxCell>
        <mxCell id="KduV_lFKxY_ZVXakrzd7-44" style="edgeStyle=orthogonalEdgeStyle;rounded=0;orthogonalLoop=1;jettySize=auto;html=1;exitX=0.5;exitY=0;exitDx=0;exitDy=0;entryX=0;entryY=0.5;entryDx=0;entryDy=0;" parent="1" source="KduV_lFKxY_ZVXakrzd7-19" target="KduV_lFKxY_ZVXakrzd7-10" edge="1">
          <mxGeometry relative="1" as="geometry">
            <Array as="points">
              <mxPoint x="320" y="607" />
            </Array>
          </mxGeometry>
        </mxCell>
        <mxCell id="KduV_lFKxY_ZVXakrzd7-45" style="edgeStyle=orthogonalEdgeStyle;rounded=0;orthogonalLoop=1;jettySize=auto;html=1;exitX=0.5;exitY=1;exitDx=0;exitDy=0;entryX=0;entryY=0.5;entryDx=0;entryDy=0;" parent="1" source="KduV_lFKxY_ZVXakrzd7-19" target="KduV_lFKxY_ZVXakrzd7-11" edge="1">
          <mxGeometry relative="1" as="geometry">
            <Array as="points">
              <mxPoint x="320" y="647" />
            </Array>
          </mxGeometry>
        </mxCell>
        <mxCell id="KduV_lFKxY_ZVXakrzd7-19" value="" style="ellipse;whiteSpace=wrap;html=1;aspect=fixed;rounded=0;" parent="1" vertex="1">
          <mxGeometry x="310" y="617" width="20" height="20" as="geometry" />
        </mxCell>
        <mxCell id="KduV_lFKxY_ZVXakrzd7-46" style="edgeStyle=orthogonalEdgeStyle;rounded=0;orthogonalLoop=1;jettySize=auto;html=1;exitX=0.5;exitY=0;exitDx=0;exitDy=0;entryX=0;entryY=0.5;entryDx=0;entryDy=0;" parent="1" source="KduV_lFKxY_ZVXakrzd7-20" target="KduV_lFKxY_ZVXakrzd7-13" edge="1">
          <mxGeometry relative="1" as="geometry">
            <Array as="points">
              <mxPoint x="320" y="687" />
            </Array>
          </mxGeometry>
        </mxCell>
        <mxCell id="KduV_lFKxY_ZVXakrzd7-47" style="edgeStyle=orthogonalEdgeStyle;rounded=0;orthogonalLoop=1;jettySize=auto;html=1;exitX=0.5;exitY=1;exitDx=0;exitDy=0;entryX=0;entryY=0.5;entryDx=0;entryDy=0;" parent="1" source="KduV_lFKxY_ZVXakrzd7-20" target="KduV_lFKxY_ZVXakrzd7-14" edge="1">
          <mxGeometry relative="1" as="geometry">
            <Array as="points">
              <mxPoint x="320" y="727" />
            </Array>
          </mxGeometry>
        </mxCell>
        <mxCell id="KduV_lFKxY_ZVXakrzd7-20" value="" style="ellipse;whiteSpace=wrap;html=1;aspect=fixed;rounded=0;" parent="1" vertex="1">
          <mxGeometry x="310" y="697" width="20" height="20" as="geometry" />
        </mxCell>
        <mxCell id="KduV_lFKxY_ZVXakrzd7-48" style="edgeStyle=orthogonalEdgeStyle;rounded=0;orthogonalLoop=1;jettySize=auto;html=1;exitX=0.5;exitY=0;exitDx=0;exitDy=0;entryX=0;entryY=0.5;entryDx=0;entryDy=0;" parent="1" source="KduV_lFKxY_ZVXakrzd7-21" target="KduV_lFKxY_ZVXakrzd7-15" edge="1">
          <mxGeometry relative="1" as="geometry">
            <Array as="points">
              <mxPoint x="320" y="767" />
            </Array>
          </mxGeometry>
        </mxCell>
        <mxCell id="KduV_lFKxY_ZVXakrzd7-50" style="edgeStyle=orthogonalEdgeStyle;rounded=0;orthogonalLoop=1;jettySize=auto;html=1;exitX=0.5;exitY=1;exitDx=0;exitDy=0;entryX=0;entryY=0.5;entryDx=0;entryDy=0;" parent="1" source="KduV_lFKxY_ZVXakrzd7-21" target="KduV_lFKxY_ZVXakrzd7-16" edge="1">
          <mxGeometry relative="1" as="geometry">
            <Array as="points">
              <mxPoint x="320" y="807" />
            </Array>
          </mxGeometry>
        </mxCell>
        <mxCell id="KduV_lFKxY_ZVXakrzd7-21" value="" style="ellipse;whiteSpace=wrap;html=1;aspect=fixed;rounded=0;" parent="1" vertex="1">
          <mxGeometry x="310" y="777" width="20" height="20" as="geometry" />
        </mxCell>
        <mxCell id="KduV_lFKxY_ZVXakrzd7-33" style="edgeStyle=orthogonalEdgeStyle;rounded=0;orthogonalLoop=1;jettySize=auto;html=1;entryX=0;entryY=0.5;entryDx=0;entryDy=0;" parent="1" source="KduV_lFKxY_ZVXakrzd7-22" target="KduV_lFKxY_ZVXakrzd7-18" edge="1">
          <mxGeometry relative="1" as="geometry" />
        </mxCell>
        <mxCell id="KduV_lFKxY_ZVXakrzd7-22" value="" style="whiteSpace=wrap;html=1;aspect=fixed;rounded=0;" parent="1" vertex="1">
          <mxGeometry x="240" y="527" width="40" height="40" as="geometry" />
        </mxCell>
        <mxCell id="KduV_lFKxY_ZVXakrzd7-90" style="edgeStyle=orthogonalEdgeStyle;rounded=0;orthogonalLoop=1;jettySize=auto;html=1;exitX=1;exitY=0.5;exitDx=0;exitDy=0;entryX=0;entryY=0.5;entryDx=0;entryDy=0;" parent="1" source="KduV_lFKxY_ZVXakrzd7-23" target="KduV_lFKxY_ZVXakrzd7-19" edge="1">
          <mxGeometry relative="1" as="geometry" />
        </mxCell>
        <mxCell id="KduV_lFKxY_ZVXakrzd7-23" value="" style="whiteSpace=wrap;html=1;aspect=fixed;rounded=0;" parent="1" vertex="1">
          <mxGeometry x="240" y="607" width="40" height="40" as="geometry" />
        </mxCell>
        <mxCell id="KduV_lFKxY_ZVXakrzd7-91" style="edgeStyle=orthogonalEdgeStyle;rounded=0;orthogonalLoop=1;jettySize=auto;html=1;exitX=1;exitY=0.5;exitDx=0;exitDy=0;entryX=0;entryY=0.5;entryDx=0;entryDy=0;" parent="1" source="KduV_lFKxY_ZVXakrzd7-24" target="KduV_lFKxY_ZVXakrzd7-20" edge="1">
          <mxGeometry relative="1" as="geometry" />
        </mxCell>
        <mxCell id="KduV_lFKxY_ZVXakrzd7-24" value="" style="whiteSpace=wrap;html=1;aspect=fixed;rounded=0;" parent="1" vertex="1">
          <mxGeometry x="240" y="687" width="40" height="40" as="geometry" />
        </mxCell>
        <mxCell id="KduV_lFKxY_ZVXakrzd7-92" style="edgeStyle=orthogonalEdgeStyle;rounded=0;orthogonalLoop=1;jettySize=auto;html=1;exitX=1;exitY=0.5;exitDx=0;exitDy=0;entryX=0;entryY=0.5;entryDx=0;entryDy=0;" parent="1" source="KduV_lFKxY_ZVXakrzd7-25" target="KduV_lFKxY_ZVXakrzd7-21" edge="1">
          <mxGeometry relative="1" as="geometry" />
        </mxCell>
        <mxCell id="KduV_lFKxY_ZVXakrzd7-25" value="" style="whiteSpace=wrap;html=1;aspect=fixed;rounded=0;" parent="1" vertex="1">
          <mxGeometry x="240" y="767" width="40" height="40" as="geometry" />
        </mxCell>
        <mxCell id="KduV_lFKxY_ZVXakrzd7-40" style="edgeStyle=orthogonalEdgeStyle;rounded=0;orthogonalLoop=1;jettySize=auto;html=1;entryX=0;entryY=0.5;entryDx=0;entryDy=0;" parent="1" source="KduV_lFKxY_ZVXakrzd7-36" target="KduV_lFKxY_ZVXakrzd7-22" edge="1">
          <mxGeometry relative="1" as="geometry">
            <Array as="points">
              <mxPoint x="200" y="547" />
            </Array>
          </mxGeometry>
        </mxCell>
        <mxCell id="KduV_lFKxY_ZVXakrzd7-41" style="edgeStyle=orthogonalEdgeStyle;rounded=0;orthogonalLoop=1;jettySize=auto;html=1;exitX=0.5;exitY=1;exitDx=0;exitDy=0;entryX=0;entryY=0.5;entryDx=0;entryDy=0;" parent="1" source="KduV_lFKxY_ZVXakrzd7-36" target="KduV_lFKxY_ZVXakrzd7-23" edge="1">
          <mxGeometry relative="1" as="geometry" />
        </mxCell>
        <mxCell id="KduV_lFKxY_ZVXakrzd7-36" value="" style="ellipse;whiteSpace=wrap;html=1;aspect=fixed;rounded=0;" parent="1" vertex="1">
          <mxGeometry x="190" y="577" width="20" height="20" as="geometry" />
        </mxCell>
        <mxCell id="KduV_lFKxY_ZVXakrzd7-42" style="edgeStyle=orthogonalEdgeStyle;rounded=0;orthogonalLoop=1;jettySize=auto;html=1;exitX=0.5;exitY=0;exitDx=0;exitDy=0;entryX=0;entryY=0.5;entryDx=0;entryDy=0;" parent="1" source="KduV_lFKxY_ZVXakrzd7-37" target="KduV_lFKxY_ZVXakrzd7-24" edge="1">
          <mxGeometry relative="1" as="geometry" />
        </mxCell>
        <mxCell id="KduV_lFKxY_ZVXakrzd7-43" style="edgeStyle=orthogonalEdgeStyle;rounded=0;orthogonalLoop=1;jettySize=auto;html=1;exitX=0.5;exitY=1;exitDx=0;exitDy=0;entryX=0;entryY=0.5;entryDx=0;entryDy=0;" parent="1" source="KduV_lFKxY_ZVXakrzd7-37" target="KduV_lFKxY_ZVXakrzd7-25" edge="1">
          <mxGeometry relative="1" as="geometry" />
        </mxCell>
        <mxCell id="KduV_lFKxY_ZVXakrzd7-37" value="" style="ellipse;whiteSpace=wrap;html=1;aspect=fixed;rounded=0;" parent="1" vertex="1">
          <mxGeometry x="190" y="737" width="20" height="20" as="geometry" />
        </mxCell>
        <mxCell id="KduV_lFKxY_ZVXakrzd7-95" value="lv2" style="edgeLabel;html=1;align=center;verticalAlign=middle;resizable=0;points=[];" parent="1" vertex="1" connectable="0">
          <mxGeometry x="143.71428571428578" y="667" as="geometry" />
        </mxCell>
      </root>
    </mxGraphModel>
  </diagram>
</mxfile>
